<svg id="Camada_1" data-name="Camada 1" xmlns="http://www.w3.org/2000/svg" xmlns:xlink="http://www.w3.org/1999/xlink" viewBox="0 0 292.48 309.88"><defs><clipPath id="clip-path"><path d="M24.35,251.83c10.39-8.79,22.82-10.13,33.9-12.38,5.53,17.91,10.84,35.09,16.3,52.75C52.6,286,36.27,272.29,24.35,251.83m110.11-14.25c12.71,1.4,26.4,3.17,39.38,11.26-12.68,23.6-31.47,37.87-55,44.28,5.14-18.23,10.3-36.57,15.65-55.54M85.82,286.43c-9.4-14.45-12.38-31-14.68-49.54h55.33c-3,18.19-6.6,35.48-17.27,50.19-3.78,5.22-7.75,7.81-11.65,7.81-4.07,0-8.07-2.83-11.73-8.46M70.73,193.08h56v34.39h-56ZM20,181.74l38.86,11.39v34.22l-39.7,12c-6.75-18.76-6.5-38.42.84-57.62m65.78-42.27c7.33-11.35,15.09-11.43,22.83-.35,9.44,13.52,12.9,29.23,16.23,45.14H72c2.12-16.6,5.22-31.58,13.77-44.79M24.2,172.17C37.79,150,54.91,136.28,76.67,130.43,70.86,147.15,65,164.1,58.52,182.69L24.2,172.17m163,20.89s-.12-2.7-.32-7.42-.54-11.43-1-19.46c-.26-4-.61-8.35-1-12.92s-1-9.37-1.59-14.3-1.55-10-2.64-15A71.06,71.06,0,0,0,176,109.49c-2.24-4.89-4.37-10.09-6.18-15.19a123.41,123.41,0,0,1-4.24-15.41A99.66,99.66,0,0,1,163.66,64c-.15-2.38-.15-4.69-.16-6.92s.13-4.39.37-6.45a87.6,87.6,0,0,1,1.61-11.12c.37-1.63.65-3.17,1-4.56s.75-2.65,1.08-3.8c.61-2.3,1.37-4,1.76-5.24l.65-1.83.41.11L170,26.11c-.27,1.23-.8,3-1.23,5.32-.22,1.15-.47,2.43-.74,3.82s-.43,2.92-.67,4.54a108.1,108.1,0,0,0-.89,11c-.12,2,0,4.11,0,6.28s.2,4.41.44,6.71a115.18,115.18,0,0,0,2.34,14.32,142.93,142.93,0,0,0,4.43,14.87c1.81,5,3.93,9.9,6.17,14.8a74,74,0,0,1,4.77,15.41c1.09,5.21,1.82,10.39,2.36,15.42,1.06,10.07,1.37,19.51,1.44,27.59s-.15,14.83-.34,19.54-.41,7.4-.41,7.4ZM152,45.24c-13,30.2-13.48,60.3,1,90.13,5.1,10.5,10.67,20.77,16.31,31,6.82,12.34,13,24.85,14.14,39.22a70.39,70.39,0,0,1-7.32,38.14L133.17,228V191.32l28.73-9.21c-.19-.62-.37-1.24-.56-1.85-8,1.2-16,2.28-24,3.64-4.84.83-6.33-1.09-7.14-5.79C127.39,162,124,146,114.84,131.91c-.53-.8-.66-1.87-1.47-4.27l25.84,6.73c.22-.59.45-1.18.68-1.78-7.2-3-14.18-6.88-21.65-9C55,106.07-6.27,160.76,3.19,226.1c6.94,47.92,47.36,82.35,95.57,81.41,47.2-.92,86.19-37.15,90.63-84.86,1.8-19.31,2.77-38.61,9.63-57.1,12.72-34.31,7.69-66.94-9.65-98.47-4.47-8.13-9.62-16.68-10.9-25.56C176.61,28.68,178,15.37,178,2.35a191.29,191.29,0,0,0-26,42.89" style="fill:#f8f8f8"/></clipPath><clipPath id="clip-path-2"><path d="M202.27,197.35s.36-1.69,1.07-4.65c.3-1.49.91-3.23,1.54-5.26.31-1,.66-2.09,1.1-3.19l1.33-3.51c1.07-2.38,2.17-5,3.65-7.62.7-1.34,1.44-2.69,2.3-4s1.66-2.73,2.63-4.06a83.47,83.47,0,0,1,6.33-7.89l1.74-1.91c.6-.63,1.23-1.23,1.85-1.85,1.21-1.24,2.5-2.41,3.81-3.58a95.75,95.75,0,0,1,8.11-6.5,98.7,98.7,0,0,1,8.48-5.41,89.24,89.24,0,0,1,8.37-4.25c2.71-1.24,5.36-2.23,7.8-3.11a81.86,81.86,0,0,1,16.78-4.14l0,.28s-1.71.24-4.63,1a94.42,94.42,0,0,0-11.85,3.81c-2.38,1-5,2.05-7.58,3.38s-5.37,2.78-8.11,4.46a98,98,0,0,0-8.15,5.56,92.6,92.6,0,0,0-7.74,6.61c-1.23,1.18-2.45,2.37-3.58,3.63-.57.62-1.16,1.23-1.72,1.86l-1.63,1.93a95.81,95.81,0,0,0-5.92,7.83c-1,1.26-1.77,2.61-2.61,3.89s-1.6,2.57-2.35,3.83-1.49,2.47-2.1,3.71-1.3,2.38-1.87,3.52c-1.06,2.33-2.22,4.39-3,6.34s-1.58,3.58-2.1,5c-1.07,2.81-1.74,4.41-1.74,4.41Zm-3.74,5.31c8.42-3,17-6.68,25.87-9.14,15.7-4.36,26.92-13.76,33.82-28.27,7.58-15.95,13.85-32.73,32-42.79H289c-56.73,0-88.42,35.91-90.44,80.2" style="fill:#f8f8f8"/></clipPath><clipPath id="clip-path-3"><path d="M337.49,251.83c10.39-8.79,22.82-10.13,33.9-12.38,5.54,17.91,10.84,35.09,16.3,52.75-21.95-6.21-38.28-19.91-50.2-40.37M447.6,237.58c12.72,1.4,26.4,3.17,39.38,11.26-12.68,23.6-31.47,37.87-55,44.28,5.14-18.23,10.3-36.57,15.65-55.54M399,286.43c-9.4-14.45-12.38-31-14.68-49.54h55.33c-3,18.19-6.6,35.48-17.27,50.19-3.78,5.22-7.75,7.81-11.64,7.81-4.08,0-8.08-2.83-11.74-8.46m-15.09-93.35h56v34.39h-56Zm-50.69-11.34L372,193.13v34.22l-39.69,12c-6.76-18.76-6.5-38.42.84-57.62M399,139.47c7.33-11.35,15.1-11.43,22.83-.35,9.44,13.52,12.91,29.23,16.24,45.14H385.18c2.12-16.6,5.22-31.58,13.77-44.79m-61.61,32.7c13.6-22.19,30.71-35.89,52.47-41.74-5.81,16.72-11.69,33.67-18.14,52.26l-34.33-10.52m163,20.89s-.12-2.7-.32-7.42-.54-11.43-1-19.46c-.25-4-.61-8.35-1-12.92s-1-9.37-1.59-14.3-1.55-10-2.64-15a71.06,71.06,0,0,0-4.64-14.49c-2.24-4.89-4.37-10.09-6.18-15.19a125.16,125.16,0,0,1-4.24-15.41A99.66,99.66,0,0,1,476.8,64c-.15-2.38-.15-4.69-.16-6.92s.13-4.39.37-6.45a89.44,89.44,0,0,1,1.61-11.12c.37-1.63.65-3.17,1-4.56s.76-2.65,1.08-3.8c.61-2.3,1.37-4,1.76-5.24s.65-1.83.65-1.83l.41.11-.46,1.88c-.27,1.23-.8,3-1.22,5.32-.23,1.15-.48,2.43-.75,3.82s-.43,2.92-.67,4.54a105.45,105.45,0,0,0-.88,11c-.12,2,0,4.11,0,6.28s.19,4.41.43,6.71a117.07,117.07,0,0,0,2.34,14.32,142.93,142.93,0,0,0,4.43,14.87c1.81,5,3.93,9.9,6.18,14.8a75.18,75.18,0,0,1,4.77,15.41c1.08,5.21,1.82,10.39,2.35,15.42,1.07,10.07,1.37,19.51,1.44,27.59s-.14,14.83-.34,19.54-.4,7.4-.4,7.4ZM465.09,45.24c-13,30.2-13.48,60.3,1,90.13,5.1,10.5,10.67,20.77,16.31,31,6.82,12.34,13,24.85,14.14,39.22a70.39,70.39,0,0,1-7.31,38.14L446.31,228V191.32L475,182.11c-.18-.62-.37-1.24-.55-1.85-8,1.2-16.05,2.28-24,3.64-4.85.83-6.33-1.09-7.14-5.79C440.53,162,437.18,146,428,131.91c-.53-.8-.66-1.87-1.47-4.27l25.84,6.73c.23-.59.45-1.18.68-1.78-7.2-3-14.17-6.88-21.64-9-63.25-17.57-124.52,37.12-115.06,102.46,6.94,47.92,47.36,82.35,95.57,81.41,47.2-.92,86.19-37.15,90.63-84.86,1.8-19.31,2.78-38.61,9.63-57.1,12.73-34.31,7.69-66.94-9.65-98.47-4.46-8.13-9.62-16.68-10.9-25.56-1.86-12.84-.48-26.15-.48-39.17a191.65,191.65,0,0,0-26,42.89" style="fill:#282828"/></clipPath></defs><path d="M24.35,251.83c10.39-8.79,22.82-10.13,33.9-12.38,5.53,17.91,10.84,35.09,16.3,52.75C52.6,286,36.27,272.29,24.35,251.83m110.11-14.25c12.71,1.4,26.4,3.17,39.38,11.26-12.68,23.6-31.47,37.87-55,44.28,5.14-18.23,10.3-36.57,15.65-55.54M85.82,286.43c-9.4-14.45-12.38-31-14.68-49.54h55.33c-3,18.19-6.6,35.48-17.27,50.19-3.78,5.22-7.75,7.81-11.65,7.81-4.07,0-8.07-2.83-11.73-8.46M70.73,193.08h56v34.39h-56ZM20,181.74l38.86,11.39v34.22l-39.7,12c-6.75-18.76-6.5-38.42.84-57.62m65.78-42.27c7.33-11.35,15.09-11.43,22.83-.35,9.44,13.52,12.9,29.23,16.23,45.14H72c2.12-16.6,5.22-31.58,13.77-44.79M24.2,172.17C37.79,150,54.91,136.28,76.67,130.43,70.86,147.15,65,164.1,58.52,182.69L24.2,172.17m163,20.89s-.12-2.7-.32-7.42-.54-11.43-1-19.46c-.26-4-.61-8.35-1-12.92s-1-9.37-1.59-14.3-1.55-10-2.64-15A71.06,71.06,0,0,0,176,109.49c-2.24-4.89-4.37-10.09-6.18-15.19a123.41,123.41,0,0,1-4.24-15.41A99.66,99.66,0,0,1,163.66,64c-.15-2.38-.15-4.69-.16-6.92s.13-4.39.37-6.45a87.6,87.6,0,0,1,1.61-11.12c.37-1.63.65-3.17,1-4.56s.75-2.65,1.08-3.8c.61-2.3,1.37-4,1.76-5.24l.65-1.83.41.11L170,26.11c-.27,1.23-.8,3-1.23,5.32-.22,1.15-.47,2.43-.74,3.82s-.43,2.92-.67,4.54a108.1,108.1,0,0,0-.89,11c-.12,2,0,4.11,0,6.28s.2,4.41.44,6.71a115.18,115.18,0,0,0,2.34,14.32,142.93,142.93,0,0,0,4.43,14.87c1.81,5,3.93,9.9,6.17,14.8a74,74,0,0,1,4.77,15.41c1.09,5.21,1.82,10.39,2.36,15.42,1.06,10.07,1.37,19.51,1.44,27.59s-.15,14.83-.34,19.54-.41,7.4-.41,7.4ZM152,45.24c-13,30.2-13.48,60.3,1,90.13,5.1,10.5,10.67,20.77,16.31,31,6.82,12.34,13,24.85,14.14,39.22a70.39,70.39,0,0,1-7.32,38.14L133.17,228V191.32l28.73-9.21c-.19-.62-.37-1.24-.56-1.85-8,1.2-16,2.28-24,3.64-4.84.83-6.33-1.09-7.14-5.79C127.39,162,124,146,114.84,131.91c-.53-.8-.66-1.87-1.47-4.27l25.84,6.73c.22-.59.45-1.18.68-1.78-7.2-3-14.18-6.88-21.65-9C55,106.07-6.27,160.76,3.19,226.1c6.94,47.92,47.36,82.35,95.57,81.41,47.2-.92,86.19-37.15,90.63-84.86,1.8-19.31,2.77-38.61,9.63-57.1,12.72-34.31,7.69-66.94-9.65-98.47-4.47-8.13-9.62-16.68-10.9-25.56C176.61,28.68,178,15.37,178,2.35a191.29,191.29,0,0,0-26,42.89" style="fill:#f8f8f8"/><g style="clip-path:url(#clip-path)"><rect x="-40.06" y="-19.47" width="285.59" height="349.75" transform="translate(-34.54 29.47) rotate(-14)" style="fill:#f8f8f8"/></g><path d="M202.27,197.35s.36-1.69,1.07-4.65c.3-1.49.91-3.23,1.54-5.26.31-1,.66-2.09,1.1-3.19l1.33-3.51c1.07-2.38,2.17-5,3.65-7.62.7-1.34,1.44-2.69,2.3-4s1.66-2.73,2.63-4.06a83.47,83.47,0,0,1,6.33-7.89l1.74-1.91c.6-.63,1.23-1.23,1.85-1.85,1.21-1.24,2.5-2.41,3.81-3.58a95.75,95.75,0,0,1,8.11-6.5,98.7,98.7,0,0,1,8.48-5.41,89.24,89.24,0,0,1,8.37-4.25c2.71-1.24,5.36-2.23,7.8-3.11a81.86,81.86,0,0,1,16.78-4.14l0,.28s-1.71.24-4.63,1a94.42,94.42,0,0,0-11.85,3.81c-2.38,1-5,2.05-7.58,3.38s-5.37,2.78-8.11,4.46a98,98,0,0,0-8.15,5.56,92.6,92.6,0,0,0-7.74,6.61c-1.23,1.18-2.45,2.37-3.58,3.63-.57.62-1.16,1.23-1.72,1.86l-1.63,1.93a95.81,95.81,0,0,0-5.92,7.83c-1,1.26-1.77,2.61-2.61,3.89s-1.6,2.57-2.35,3.83-1.49,2.47-2.1,3.71-1.3,2.38-1.87,3.52c-1.06,2.33-2.22,4.39-3,6.34s-1.58,3.58-2.1,5c-1.07,2.81-1.74,4.41-1.74,4.41Zm-3.74,5.31c8.42-3,17-6.68,25.87-9.14,15.7-4.36,26.92-13.76,33.82-28.27,7.58-15.95,13.85-32.73,32-42.79H289c-56.73,0-88.42,35.91-90.44,80.2" style="fill:#f8f8f8"/><g style="clip-path:url(#clip-path-2)"><rect x="190.19" y="112.55" width="108.41" height="100.01" transform="translate(-32.07 63.95) rotate(-14)" style="fill:#f8f8f8"/></g><path d="M337.49,251.83c10.39-8.79,22.82-10.13,33.9-12.38,5.54,17.91,10.84,35.09,16.3,52.75-21.95-6.21-38.28-19.91-50.2-40.37M447.6,237.58c12.72,1.4,26.4,3.17,39.38,11.26-12.68,23.6-31.47,37.87-55,44.28,5.14-18.23,10.3-36.57,15.65-55.54M399,286.43c-9.4-14.45-12.38-31-14.68-49.54h55.33c-3,18.19-6.6,35.48-17.27,50.19-3.78,5.22-7.75,7.81-11.64,7.81-4.08,0-8.08-2.83-11.74-8.46m-15.09-93.35h56v34.39h-56Zm-50.69-11.34L372,193.13v34.22l-39.69,12c-6.76-18.76-6.5-38.42.84-57.62M399,139.47c7.33-11.35,15.1-11.43,22.83-.35,9.44,13.52,12.91,29.23,16.24,45.14H385.18c2.12-16.6,5.22-31.58,13.77-44.79m-61.61,32.7c13.6-22.19,30.71-35.89,52.47-41.74-5.81,16.72-11.69,33.67-18.14,52.26l-34.33-10.52m163,20.89s-.12-2.7-.32-7.42-.54-11.43-1-19.46c-.25-4-.61-8.35-1-12.92s-1-9.37-1.59-14.3-1.55-10-2.64-15a71.06,71.06,0,0,0-4.64-14.49c-2.24-4.89-4.37-10.09-6.18-15.19a125.16,125.16,0,0,1-4.24-15.41A99.66,99.66,0,0,1,476.8,64c-.15-2.38-.15-4.69-.16-6.92s.13-4.39.37-6.45a89.44,89.44,0,0,1,1.61-11.12c.37-1.63.65-3.17,1-4.56s.76-2.65,1.08-3.8c.61-2.3,1.37-4,1.76-5.24s.65-1.83.65-1.83l.41.11-.46,1.88c-.27,1.23-.8,3-1.22,5.32-.23,1.15-.48,2.43-.75,3.82s-.43,2.92-.67,4.54a105.45,105.45,0,0,0-.88,11c-.12,2,0,4.11,0,6.28s.19,4.41.43,6.71a117.07,117.07,0,0,0,2.34,14.32,142.93,142.93,0,0,0,4.43,14.87c1.81,5,3.93,9.9,6.18,14.8a75.18,75.18,0,0,1,4.77,15.41c1.08,5.21,1.82,10.39,2.35,15.42,1.07,10.07,1.37,19.51,1.44,27.59s-.14,14.83-.34,19.54-.4,7.4-.4,7.4ZM465.09,45.24c-13,30.2-13.48,60.3,1,90.13,5.1,10.5,10.67,20.77,16.31,31,6.82,12.34,13,24.85,14.14,39.22a70.39,70.39,0,0,1-7.31,38.14L446.31,228V191.32L475,182.11c-.18-.62-.37-1.24-.55-1.85-8,1.2-16.05,2.28-24,3.64-4.85.83-6.33-1.09-7.14-5.79C440.53,162,437.18,146,428,131.91c-.53-.8-.66-1.87-1.47-4.27l25.84,6.73c.23-.59.45-1.18.68-1.78-7.2-3-14.17-6.88-21.64-9-63.25-17.57-124.52,37.12-115.06,102.46,6.94,47.92,47.36,82.35,95.57,81.41,47.2-.92,86.19-37.15,90.63-84.86,1.8-19.31,2.78-38.61,9.63-57.1,12.73-34.31,7.69-66.94-9.65-98.47-4.46-8.13-9.62-16.68-10.9-25.56-1.86-12.84-.48-26.15-.48-39.17a191.65,191.65,0,0,0-26,42.89" style="fill:#282828"/><g style="clip-path:url(#clip-path-3)"><rect x="273.08" y="-19.47" width="285.59" height="349.75" transform="translate(-25.24 105.23) rotate(-14)" style="fill:#282828"/></g></svg>