<svg id="Camada_1" data-name="Camada 1" xmlns="http://www.w3.org/2000/svg" viewBox="0 0 144 144"><path d="M87.74,41.73H56.26A14.55,14.55,0,0,0,41.73,56.26V87.74a14.55,14.55,0,0,0,14.53,14.53H87.74a14.55,14.55,0,0,0,14.53-14.53V56.26A14.55,14.55,0,0,0,87.74,41.73ZM72,90.71A18.71,18.71,0,1,1,90.71,72,18.73,18.73,0,0,1,72,90.71Zm19.51-34a4.5,4.5,0,1,1,4.5-4.5A4.51,4.51,0,0,1,91.51,56.72Z" style="fill:#fff"/><path d="M72,0a72,72,0,1,0,72,72A72,72,0,0,0,72,0Zm36.53,87.74a20.82,20.82,0,0,1-20.79,20.79H56.26A20.82,20.82,0,0,1,35.47,87.74V56.26A20.82,20.82,0,0,1,56.26,35.47H87.74a20.82,20.82,0,0,1,20.79,20.79Z" style="fill:#fff"/><path d="M72,59.55A12.45,12.45,0,1,0,84.45,72,12.47,12.47,0,0,0,72,59.55Z" style="fill:#fff"/></svg>