<svg id="Camada_1" data-name="Camada 1" xmlns="http://www.w3.org/2000/svg" viewBox="0 0 144 144"><path d="M72.16,41.39a30.3,30.3,0,0,0-25.67,46.4l.72,1.14-3.06,11.18,11.47-3,1.1.66A30.22,30.22,0,0,0,72.14,102h0a30.3,30.3,0,0,0,0-60.59ZM90,84.69c-.76,2.13-4.47,4.18-6.14,4.33s-3.24.76-10.93-2.28C63.65,83.09,57.81,73.6,57.35,73s-3.72-4.94-3.72-9.42A10.24,10.24,0,0,1,56.82,56a3.36,3.36,0,0,1,2.43-1.14c.61,0,1.21,0,1.74,0s1.37.06,2,1.58c.81,1.8,2.58,6.3,2.81,6.76a1.67,1.67,0,0,1,.08,1.59A6.52,6.52,0,0,1,65,66.31c-.46.53-1,1.19-1.37,1.6s-.93.94-.4,1.85a27.1,27.1,0,0,0,5.07,6.31,25.07,25.07,0,0,0,7.32,4.52c.91.46,1.44.38,2-.23s2.28-2.66,2.89-3.57,1.21-.76,2-.45,5.31,2.5,6.22,3,1.52.68,1.74,1.06A7.57,7.57,0,0,1,90,84.69Z" style="fill:#fff"/><path d="M72,0a72,72,0,1,0,72,72A72,72,0,0,0,72,0Zm.15,108.13h0a36.43,36.43,0,0,1-17.42-4.43L35.4,108.76l5.17-18.88a36.45,36.45,0,1,1,31.58,18.25Z" style="fill:#fff"/></svg>