<svg id="Camada_1" data-name="Camada 1" xmlns="http://www.w3.org/2000/svg" viewBox="0 0 299.06 299.06"><circle cx="149.53" cy="149.53" r="141.84" style="fill:none;stroke:#fff;stroke-miterlimit:10;stroke-width:4px"/><path d="M122.32,131v37c0,5.25,4.79,8.84,9.18,6.86l41.08-18.49c5.55-2.5,5.55-11.22,0-13.72C153.47,134.88,129.67,127,129.67,127" style="fill:none;stroke:#fff;stroke-linejoin:bevel;stroke-width:4px"/><path d="M147.57,94.54h66.37A18.49,18.49,0,0,1,232.38,113v73.1a18.5,18.5,0,0,1-18.44,18.44H85.12a18.5,18.5,0,0,1-18.44-18.44V113A18.49,18.49,0,0,1,85.12,94.54h37.2" style="fill:none;stroke:#fff;stroke-linejoin:bevel;stroke-width:4px"/></svg>