<svg id="Camada_1" data-name="Camada 1" xmlns="http://www.w3.org/2000/svg" viewBox="0 0 299.06 299.06"><path d="M65.6,210.71c28.88-13.05,84.21-3.41,84.21-3.41" style="fill:none;stroke:#fff;stroke-linejoin:bevel;stroke-width:4px"/><path d="M233.45,210.73c-28.87-13-84.62-3.43-84.62-3.43" style="fill:none;stroke:#fff;stroke-linejoin:bevel;stroke-width:4px"/><path d="M148.83,97.19a121.92,121.92,0,0,0-28.59-7.52C96.08,86,81.07,90.73,70.55,93.78l-5,106a114.62,114.62,0,0,1,35.19-5.65c18.71-.05,39,7.61,48,11.21" style="fill:none;stroke:#fff;stroke-linejoin:bevel;stroke-width:4px"/><path d="M148.83,97.19a121.92,121.92,0,0,1,28.59-7.52c24.16-3.67,39.17,1.06,49.69,4.11l4.95,106a114.62,114.62,0,0,0-35.19-5.65c-18.71-.05-39,7.61-48,11.21" style="fill:none;stroke:#fff;stroke-linejoin:bevel;stroke-width:4px"/><line x1="148.83" y1="141.69" x2="148.83" y2="96.87" style="fill:none;stroke:#fff;stroke-linejoin:bevel;stroke-width:4px"/><line x1="148.83" y1="208.95" x2="148.83" y2="182.95" style="fill:none;stroke:#fff;stroke-linejoin:bevel;stroke-width:4px"/><circle cx="149.53" cy="149.53" r="141.84" style="fill:none;stroke:#fff;stroke-miterlimit:10;stroke-width:4px"/></svg>