<svg id="Camada_1" data-name="Camada 1" xmlns="http://www.w3.org/2000/svg" viewBox="0 0 299.06 299.06"><circle cx="149.53" cy="149.53" r="141.84" style="fill:none;stroke:#fff;stroke-miterlimit:10;stroke-width:4px"/><path d="M152,97.84s5.9-5.83,12.54-13.07c3.15-3.45,6.45-4.86,9.12-4.78,3.61.11,7.65,4.31,8,7.92a9.49,9.49,0,0,1-2.52,8.34c-5.19,6-13.85,14-13.85,14s12.22-11.58,18.73-13.06c3.46-.79,6.82,2.84,7.26,5.57.76,4.81-4.9,10.36-8.13,14.49-3,3.85-6.84,7.79-6.84,7.79s10.38-12.27,16.21-13.38c3.51-.66,6.9,1.88,8.34,4.57,3.55,6.66-5.21,14.43-6.14,15.58-2.51,3.09-4.72,5.5-4.72,5.5s6.79-6.55,12-7.08c3.39-.34,7.32,3.39,8,6.77.9,4.31-2.36,8.24-4.72,11-19.1,22.41-30.52,32.42-30.52,32.42-9.57,8.38-12.8,10.63-16.06,12.59-7.7,4.63-12.83,6-17.93,8.18,0,0-14.8,11.64-27.7,22.66" style="fill:none;stroke:#fff;stroke-linejoin:bevel;stroke-width:4px"/><path d="M144.65,110.42a8.94,8.94,0,0,1,0,12.6l-.42.42a8.94,8.94,0,0,1-12.6,0L103.8,95.61a8.93,8.93,0,0,1,0-12.6l.41-.42a8.94,8.94,0,0,1,12.61,0" style="fill:none;stroke:#fff;stroke-linejoin:bevel;stroke-width:4px"/><path d="M131.34,123.23a9.21,9.21,0,1,1-13,13L88.19,106.12a9,9,0,0,1,0-13,7.92,7.92,0,0,1,9.86-.51" style="fill:none;stroke:#fff;stroke-linejoin:bevel;stroke-width:4px"/><path d="M118.72,136.65a8.66,8.66,0,0,1,0,12.21l-.81.81a8.66,8.66,0,0,1-12.21,0L79.94,123.91a8.67,8.67,0,0,1,0-12.21s3.63-3.11,7.69-.76" style="fill:none;stroke:#fff;stroke-linejoin:bevel;stroke-width:4px"/><path d="M106.09,150.06a8.11,8.11,0,0,1,0,11.43l-1.58,1.59a8.12,8.12,0,0,1-11.44,0L71.21,141.22a8.12,8.12,0,0,1,0-11.44s2.73-2.7,6.22-1.58" style="fill:none;stroke:#fff;stroke-linejoin:bevel;stroke-width:4px"/><path d="M183.52,234.88c-2.71-1.5-5-2.57-13.69-14.63-1.81-2.5-4-6.37-10.15-7.08-2.21-.26-12.08-2.63-18.41-10.86" style="fill:none;stroke:#fff;stroke-linejoin:bevel;stroke-width:4px"/><path d="M203.63,150c1.24,2.32,11.1,16.42,15.29,22.58C227,184.5,230.45,184.85,232.38,190" style="fill:none;stroke:#fff;stroke-linejoin:bevel;stroke-width:4px"/><path d="M132.73,96.53S127.87,91.1,125.22,81c-.94-3.56-1.21-17.86,2.12-16.75C133.72,66.35,149.29,89,155,94.93" style="fill:none;stroke:#fff;stroke-linejoin:bevel;stroke-width:4px"/><line x1="66.68" y1="179.65" x2="87.69" y2="157.7" style="fill:none;stroke:#fff;stroke-linejoin:bevel;stroke-width:4px"/></svg>