<svg id="Camada_1" data-name="Camada 1" xmlns="http://www.w3.org/2000/svg" viewBox="0 0 299.06 299.06"><path d="M192.82,70.45s-49.55,24.86-60.72,33c-8.59,6.23-17.43,13.47-21.87,19.62a36.3,36.3,0,0,0-5.29,10.85c-.36,1.38-.33,1.71-.87,4.33-1.17,5.67-2.42,9.64-2.89,11.24-2.32,8.08-3.19,20.95-1.3,21.45,2.26.6,10.09-16.07,13.73-25.73a26.71,26.71,0,0,1,3.59-6.86c3.38-4.59,7.49-6.86,11-8.73,14.47-7.63,28.58-13.35,28.58-13.35h0c-17.28,16.27-21.55,24.58-21.55,24.58-1.4,2.73-5.52,10.74-3.42,12.53,2.32,2,10.24-5.31,28.12-18,6.73-4.77,11.53-8,16-10.92,5.88-3.94,11.12-7.52,19.34-14,11.34-9,15.73-13.47,18.73-20.23" style="fill:none;stroke:#fff;stroke-linejoin:bevel;stroke-width:4px"/><path d="M121.59,199s-3.83-2.09-10.87-2c-11.88.22-25,7.63-46.09,23.5" style="fill:none;stroke:#fff;stroke-linejoin:bevel;stroke-width:4px"/><path d="M177.47,199s3.83-2.09,10.87-2c11.88.22,25,7.63,46.09,23.5" style="fill:none;stroke:#fff;stroke-linejoin:bevel;stroke-width:4px"/><rect x="144.3" y="169.81" width="5.22" height="5.22" transform="translate(236.37 380.52) rotate(-162.83)" style="fill:#fff"/><rect x="148.66" y="191.04" width="5.22" height="5.22" transform="translate(-50.43 53.29) rotate(-17.17)" style="fill:#fff"/><circle cx="149.53" cy="149.53" r="141.84" style="fill:none;stroke:#fff;stroke-miterlimit:10;stroke-width:4px"/></svg>