<svg id="Camada_1" data-name="Camada 1" xmlns="http://www.w3.org/2000/svg" viewBox="0 0 299.06 299.06"><path d="M96.51,88.37c12.36-10.93,29.56-18.48,52.56-18.48,9,0,23.48,3.21,23.44,3.5a6,6,0,0,0-3.24.78,4.92,4.92,0,0,0-1.84,2.73,5.83,5.83,0,0,0,3.07,2A12,12,0,0,1,178,85.06a10.54,10.54,0,0,1,.82,6.26,11.86,11.86,0,0,1-9.2,9.59A17.5,17.5,0,0,1,158.4,99.2a12.46,12.46,0,0,1-3.93-3,13.64,13.64,0,0,0-13.05-4.68A16.48,16.48,0,0,0,130.09,100a20.73,20.73,0,0,0-2.31,13.37,5.69,5.69,0,0,0,3.84,4.48,21.25,21.25,0,0,0,5.31.85,10,10,0,0,1,9.49,8.69c0,.42.06.76.07,1.1a6.06,6.06,0,0,0,1.06,3.42,9.66,9.66,0,0,1-.41,12.8,5.71,5.71,0,0,0-1.49,4.8c1.17,6.47,3.41,10.44,5.9,10.67,1-.08,8.39-.89,9.83-6.32a8.73,8.73,0,0,1,9.23-7.21,3.52,3.52,0,0,0,1.93-1,1.32,1.32,0,0,0,.22-1,10.42,10.42,0,0,1,5.82-12.69l7.26-4.31a2,2,0,0,0,.79-.79,5.57,5.57,0,0,0-.76-4.14l-2.24-.5a6.48,6.48,0,0,1-5.1-5.94,9,9,0,0,0-.89-3.41,6.56,6.56,0,0,1,.63-7.15,6.42,6.42,0,0,1,6.48-2.3c5,1,11.25,1,12.45-.5l.34-.41.49-.21c7.44-4.32,7.5-4.3,9.14-6.2l.51-.46a79.75,79.75,0,0,1,16.5,80.46l.08-2.4c.48-1.8.88-3.62,1.21-5.44,0,0,0,0,0,0v0c-.73-4.17-3.79-10-7.29-10.45-1,0-8.41.59-10,6a8.74,8.74,0,0,1-9.48,6.87,3.51,3.51,0,0,0-2,.95,1.32,1.32,0,0,0-.26,1A10.41,10.41,0,0,1,190.18,185l-7.41,4.05a1.78,1.78,0,0,0-.78.73,5.51,5.51,0,0,0,.58,4.2l2.23.56a6.5,6.5,0,0,1,4.9,6.11,8.59,8.59,0,0,0,.75,3.42,6.62,6.62,0,0,1-.88,7.16,6.28,6.28,0,0,1-6.55,2.08l-.26-.09c-4.83-1-11-1.25-12.19.15l-.44.37c-.06.06-7.67,5.26-9,13.44v1.05a80.65,80.65,0,0,1-12,.9A79.28,79.28,0,0,1,102,213.77l-.51-.54a15.59,15.59,0,0,1,3-5.6,10.62,10.62,0,0,1,4.31-3.45c1.73-.68,3.21-.59,5.82-.43,4.14.25,4.85,1.12,6.47.43a5.67,5.67,0,0,0,3.23-5c0-1.92-1.21-3.36-2.37-4.74-1.67-2-2.46-1.75-3-3s-.06-2.49,1.3-6.69c1.27-3.93,1.9-5.92,1.72-7.11-.37-2.46-2.22-5.25-4.74-5.82-2.21-.5-4.28.83-6.69,2.37-3.13,2-3.22,3.27-5,3.45-2.36.25-2.82-2.28-6.25-2.59-1.15-.1-4.29-.42-6.47,1.51-1.41,1.26-1.52,2.7-2.37,4.31-1,1.92-3.15,4.34-8.41,6l-1.53-2.07a79.08,79.08,0,0,1-6.61-15.31,90.11,90.11,0,0,1-3.58-23.7" style="fill:none;stroke:#fff;stroke-linejoin:bevel;stroke-width:4px"/><circle cx="149.53" cy="149.53" r="141.84" style="fill:none;stroke:#fff;stroke-miterlimit:10;stroke-width:4px"/></svg>