<svg id="Camada_1" data-name="Camada 1" xmlns="http://www.w3.org/2000/svg" viewBox="0 0 299.06 299.06"><path d="M111.85,230.5c0-16.94,24.38-30.23,28.11-53.61,5.39-33.71,6.68-61-.39-60.23-2.9.31-4,14.9-4,16.56-.43,10.72-3.9,10.29-6.53,23.65" style="fill:none;stroke:#fff;stroke-linejoin:bevel;stroke-width:4px"/><path d="M183.73,226.92c-6.77-14.67-29.47-26.65-33.2-50-5.39-33.71-6.68-61,.4-60.23,2.89.31,4,14.9,4,16.56.43,10.72,4.34,11.65,7,25" style="fill:none;stroke:#fff;stroke-linejoin:bevel;stroke-width:4px"/><path d="M222.49,222.85c-10.48-6.19-26.41-11.57-38.66-33.75-3.12-5.65-23.88-55.92-25.88-76-3.48-34.9-4.39-44.87-8-44.5-2.34.24-2.45,16.09-3.11,30.87l-1.6,38.09-.8-38.29c-.36-11.84.29-30.43-2.06-30.67-3.6-.37-5.23,2.82-8.71,37.72-2,20.09-22.74,76.8-25.16,82.79-7.58,18.82-20.07,27.9-31.95,35" style="fill:none;stroke:#fff;stroke-linejoin:bevel;stroke-width:4px"/><circle cx="149.53" cy="149.53" r="141.84" style="fill:none;stroke:#fff;stroke-miterlimit:10;stroke-width:4px"/></svg>