<svg id="Camada_1" data-name="Camada 1" xmlns="http://www.w3.org/2000/svg" viewBox="0 0 299.06 299.06"><rect x="111.86" y="121.77" width="5.63" height="5.63" transform="translate(229.35 249.17) rotate(180)" style="fill:#fff"/><path d="M76.74,133.28V91.48a9.19,9.19,0,0,1,9.19-9.19h127.2a9.19,9.19,0,0,1,9.19,9.19V218.67a9.19,9.19,0,0,1-9.19,9.19H85.93a9.19,9.19,0,0,1-9.19-9.19V163" style="fill:none;stroke:#fff;stroke-linejoin:bevel;stroke-width:4px"/><line x1="114.67" y1="71.2" x2="114.67" y2="93" style="fill:none;stroke:#fff;stroke-linejoin:bevel;stroke-width:4px"/><line x1="184.38" y1="71.2" x2="184.38" y2="93" style="fill:none;stroke:#fff;stroke-linejoin:bevel;stroke-width:4px"/><rect x="111.86" y="152.42" width="5.63" height="5.63" transform="translate(229.35 310.48) rotate(180)" style="fill:#fff"/><rect x="145.62" y="121.77" width="5.63" height="5.63" transform="translate(296.87 249.17) rotate(180)" style="fill:#fff"/><rect x="145.62" y="152.42" width="5.63" height="5.63" transform="translate(296.87 310.48) rotate(180)" style="fill:#fff"/><rect x="179.85" y="121.77" width="5.63" height="5.63" transform="translate(365.32 249.17) rotate(180)" style="fill:#fff"/><rect x="179.85" y="152.42" width="5.63" height="5.63" transform="translate(365.32 310.48) rotate(180)" style="fill:#fff"/><rect x="111.86" y="183.08" width="5.63" height="5.63" transform="translate(229.35 371.79) rotate(180)" style="fill:#fff"/><rect x="145.62" y="183.08" width="5.63" height="5.63" transform="translate(296.87 371.79) rotate(180)" style="fill:#fff"/><rect x="179.85" y="183.08" width="5.63" height="5.63" transform="translate(365.32 371.79) rotate(180)" style="fill:#fff"/><circle cx="149.53" cy="149.53" r="141.84" style="fill:none;stroke:#fff;stroke-miterlimit:10;stroke-width:4px"/></svg>