<svg id="Camada_1" data-name="Camada 1" xmlns="http://www.w3.org/2000/svg" viewBox="0 0 299.06 299.06"><path d="M176.09,110.31c-16.85,11.55-23,24.73-23.56,29.65-.12,1.08-.5,4.38.79,5s3.19-1.39,3.68-1.85c6.5-6,25.78-4.63,38.41-11.57,8.66-4.76,13-13.87,21.57-32.09,2.09-4.42,8.89-18.83,5.79-21-2.37-1.69-7.48,5.85-18.68,10a232.53,232.53,0,0,1-32,9.41c-19.35,4.42-21.37,40.71-21.37,40.71l-.44,82.38V169.8s-12.46-15.41-15.86-19c-4.63-4.94-11.15-14.56-26.72-14.2-4.81.11-13.93-2.26-19.48-3.84-7.84-2.23-11.71-7.81-12.57-7.11-1.08.9,4.67,10.25,13.66,22.08,11.67,15.35,17.68,23.1,26.15,26.61,11.62,4.81,27.2,4,28.54-.12,1.05-3.24-28.54-14.68-44.49-29.82" style="fill:none;stroke:#fff;stroke-linejoin:bevel;stroke-width:4px"/><path d="M208.63,95.43a259.39,259.39,0,0,0-27.19,10.49" style="fill:none;stroke:#fff;stroke-linejoin:bevel;stroke-width:4px"/><circle cx="149.53" cy="149.53" r="141.84" style="fill:none;stroke:#fff;stroke-miterlimit:10;stroke-width:4px"/></svg>